<?xml version="1.0" encoding="UTF-8" standalone="no"?>
<!-- Created with Inkscape (http://www.inkscape.org/) -->

<svg
   xmlns:dc="http://purl.org/dc/elements/1.1/"
   xmlns:cc="http://creativecommons.org/ns#"
   xmlns:rdf="http://www.w3.org/1999/02/22-rdf-syntax-ns#"
   xmlns:svg="http://www.w3.org/2000/svg"
   xmlns="http://www.w3.org/2000/svg"
   xmlns:sodipodi="http://sodipodi.sourceforge.net/DTD/sodipodi-0.dtd"
   xmlns:inkscape="http://www.inkscape.org/namespaces/inkscape"
   width="800px"
   height="600px"
   id="svg3502"
   version="1.1"
   inkscape:version="0.48.4 r9939"
   sodipodi:docname="New document 3">
  <defs
     id="defs3504">
    <clipPath
       clipPathUnits="userSpaceOnUse"
       id="clipPath26">
      <path
         inkscape:connector-curvature="0"
         d="m 0,841.89 595.28,0 L 595.28,0 0,0 0,841.89 z"
         id="path28" />
    </clipPath>
    <clipPath
       clipPathUnits="userSpaceOnUse"
       id="clipPath130">
      <path
         inkscape:connector-curvature="0"
         d="m 0,841.89 595.28,0 L 595.28,0 0,0 0,841.89 z"
         id="path132" />
    </clipPath>
    <clipPath
       clipPathUnits="userSpaceOnUse"
       id="clipPath130-3">
      <path
         inkscape:connector-curvature="0"
         d="m 0,841.89 595.28,0 L 595.28,0 0,0 0,841.89 z"
         id="path132-6" />
    </clipPath>
    <clipPath
       clipPathUnits="userSpaceOnUse"
       id="clipPath26-7">
      <path
         inkscape:connector-curvature="0"
         d="m 0,841.89 595.28,0 L 595.28,0 0,0 0,841.89 z"
         id="path28-5" />
    </clipPath>
    <clipPath
       clipPathUnits="userSpaceOnUse"
       id="clipPath4036">
      <path
         inkscape:connector-curvature="0"
         d="m 0,841.89 595.276,0 L 595.276,0 0,0 0,841.89 z"
         id="path4038" />
    </clipPath>
  </defs>
  <sodipodi:namedview
     id="base"
     pagecolor="#ffffff"
     bordercolor="#666666"
     borderopacity="1.0"
     inkscape:pageopacity="0.0"
     inkscape:pageshadow="2"
     inkscape:zoom="0.6"
     inkscape:cx="400"
     inkscape:cy="307.52677"
     inkscape:current-layer="layer1"
     inkscape:document-units="px"
     showgrid="false"
     inkscape:window-width="1366"
     inkscape:window-height="740"
     inkscape:window-x="0"
     inkscape:window-y="0"
     inkscape:window-maximized="1" />
  <metadata
     id="metadata3507">
    <rdf:RDF>
      <cc:Work
         rdf:about="">
        <dc:format>image/svg+xml</dc:format>
        <dc:type
           rdf:resource="http://purl.org/dc/dcmitype/StillImage" />
        <dc:title></dc:title>
      </cc:Work>
    </rdf:RDF>
  </metadata>
  <g
     id="layer1"
     inkscape:label="Layer 1"
     inkscape:groupmode="layer">
    <path
       inkscape:connector-curvature="0"
       d="m 101.38672,30.57831 22.61568,0 0,115.51594 -22.61568,0 0,-115.51594 z"
       style="fill:#b3b3b3;fill-opacity:1;fill-rule:nonzero;stroke:none"
       id="path12" />
    <g
       id="g14"
       transform="matrix(2.0934633,0,0,-2.785866,128.98128,146.09284)"
       style="fill:#b3b3b3">
      <path
         inkscape:connector-curvature="0"
         d="m 0,0 0,41.465 12.154,0 7.012,-25.554 0,25.554 10.104,0 L 29.27,0 17.35,0 10.105,25.611 10.105,0 0,0 z"
         style="fill:#b3b3b3;fill-opacity:1;fill-rule:nonzero;stroke:none"
         id="path16" />
    </g>
    <g
       id="g18"
       transform="matrix(2.0934633,0,0,-2.785866,196.09059,146.09284)"
       style="fill:#b3b3b3">
      <path
         inkscape:connector-curvature="0"
         d="m 0,0 0,41.465 12.154,0 7.01,-25.554 0,25.554 10.107,0 L 29.271,0 17.35,0 10.105,25.611 10.105,0 0,0 z"
         style="fill:#b3b3b3;fill-opacity:1;fill-rule:nonzero;stroke:none"
         id="path20" />
    </g>
    <g
       transform="matrix(2.0934633,0,0,-2.785866,-105.98547,1728.6332)"
       id="g22"
       style="fill:#b3b3b3">
      <g
         id="g24"
         clip-path="url(#clipPath26-7)"
         style="fill:#b3b3b3">
        <g
           id="g30"
           transform="translate(186.2832,588.793)"
           style="fill:#b3b3b3">
          <path
             inkscape:connector-curvature="0"
             d="m 0,0 c 0,-5.847 0.193,-9.621 0.58,-11.325 0.465,-1.936 1.49,-2.904 3.078,-2.904 1.588,0 2.613,0.968 3.078,2.904 0.387,1.704 0.58,5.478 0.58,11.325 0,5.845 -0.193,9.621 -0.58,11.324 -0.465,1.937 -1.49,2.905 -3.078,2.905 C 2.07,14.229 1.045,13.261 0.58,11.324 0.193,9.621 0,5.845 0,0 m -11.15,0 c 0,7.82 1.103,13.366 3.31,16.639 2.205,3.27 6.039,4.906 11.498,4.906 5.459,0 9.293,-1.636 11.498,-4.906 C 17.363,13.366 18.467,7.82 18.467,0 c 0,-7.82 -1.104,-13.368 -3.311,-16.638 -2.205,-3.273 -6.039,-4.907 -11.498,-4.907 -5.459,0 -9.293,1.634 -11.498,4.907 -2.207,3.27 -3.31,8.818 -3.31,16.638"
             style="fill:#b3b3b3;fill-opacity:1;fill-rule:nonzero;stroke:none"
             id="path32" />
        </g>
        <g
           id="g34"
           transform="translate(211.1973,568.0605)"
           style="fill:#b3b3b3">
          <path
             inkscape:connector-curvature="0"
             d="m 0,0 -8.943,41.465 11.5,0 4.353,-31.243 0.117,0 4.356,31.243 11.498,0 L 13.938,0 0,0 z"
             style="fill:#b3b3b3;fill-opacity:1;fill-rule:nonzero;stroke:none"
             id="path36" />
        </g>
        <g
           id="g38"
           transform="translate(247.959,583.4482)"
           style="fill:#b3b3b3">
          <path
             inkscape:connector-curvature="0"
             d="m 0,0 -2.961,17.598 -0.117,0 L -6.041,0 0,0 z m -19.92,-15.388 10.106,41.465 13.589,0 10.106,-41.465 -11.5,0 -1.104,7.26 -8.593,0 -1.104,-7.26 -11.5,0 z"
             style="fill:#b3b3b3;fill-opacity:1;fill-rule:nonzero;stroke:none"
             id="path40" />
        </g>
        <g
           id="g42"
           transform="translate(263.5801,568.0605)"
           style="fill:#b3b3b3">
          <path
             inkscape:connector-curvature="0"
             d="m 0,0 0,32.289 -8.131,0 0,9.176 27.065,0 0,-9.176 -8.131,0 L 10.803,0 0,0 z"
             style="fill:#b3b3b3;fill-opacity:1;fill-rule:nonzero;stroke:none"
             id="path44" />
        </g>
        <path
           inkscape:connector-curvature="0"
           d="m 284.73,609.525 10.803,0 0,-41.465 -10.803,0 0,41.465 z"
           style="fill:#b3b3b3;fill-opacity:1;fill-rule:nonzero;stroke:none"
           id="path46" />
        <g
           id="g48"
           transform="translate(309.0996,588.793)"
           style="fill:#b3b3b3">
          <path
             inkscape:connector-curvature="0"
             d="m 0,0 c 0,-5.847 0.193,-9.621 0.58,-11.325 0.465,-1.936 1.492,-2.904 3.078,-2.904 1.588,0 2.613,0.968 3.076,2.904 C 7.121,-9.621 7.316,-5.847 7.316,0 7.316,5.845 7.121,9.621 6.734,11.324 6.271,13.261 5.246,14.229 3.658,14.229 2.072,14.229 1.045,13.261 0.58,11.324 0.193,9.621 0,5.845 0,0 m -11.152,0 c 0,7.82 1.105,13.366 3.31,16.639 2.207,3.27 6.043,4.906 11.5,4.906 5.459,0 9.291,-1.636 11.498,-4.906 C 17.363,13.366 18.467,7.82 18.467,0 c 0,-7.82 -1.104,-13.368 -3.311,-16.638 -2.207,-3.273 -6.039,-4.907 -11.498,-4.907 -5.457,0 -9.293,1.634 -11.5,4.907 -2.205,3.27 -3.31,8.818 -3.31,16.638"
             style="fill:#b3b3b3;fill-opacity:1;fill-rule:nonzero;stroke:none"
             id="path50" />
        </g>
        <g
           id="g52"
           transform="translate(329.1348,568.0605)"
           style="fill:#b3b3b3">
          <path
             inkscape:connector-curvature="0"
             d="m 0,0 0,41.465 12.152,0 7.012,-25.554 0,25.554 10.106,0 L 29.27,0 17.35,0 10.105,25.611 10.105,0 0,0 z"
             style="fill:#b3b3b3;fill-opacity:1;fill-rule:nonzero;stroke:none"
             id="path54" />
        </g>
        <g
           id="g56"
           transform="translate(109.8594,549.0508)"
           style="fill:#b3b3b3">
          <path
             inkscape:connector-curvature="0"
             d="m 0,0 0,-25.903 2.111,0 c 1.789,0 3.065,0.794 3.826,2.382 0.573,1.2 0.875,2.96 0.915,5.284 l 0,5.285 0,5.285 C 6.812,-5.344 6.51,-3.582 5.937,-2.382 5.176,-0.794 3.9,0 2.111,0 L 0,0 z m -10.803,-33.685 0,41.467 15.68,0 c 5.613,0 9.369,-2.091 11.266,-6.271 1.24,-2.789 1.859,-7.611 1.859,-14.463 0,-6.852 -0.619,-11.673 -1.859,-14.46 -1.897,-4.181 -5.653,-6.273 -11.266,-6.273 l -15.68,0 z"
             style="fill:#b3b3b3;fill-opacity:1;fill-rule:nonzero;stroke:none"
             id="path58" />
        </g>
        <g
           id="g60"
           transform="translate(134.9219,515.3662)"
           style="fill:#b3b3b3">
          <path
             inkscape:connector-curvature="0"
             d="m 0,0 0,41.467 24.564,0 0,-8.827 -13.763,0 0,-7.086 12.892,0 0,-8.48 -12.892,0 0,-8.246 14.285,0 L 25.086,0 0,0 z"
             style="fill:#b3b3b3;fill-opacity:1;fill-rule:nonzero;stroke:none"
             id="path62" />
        </g>
        <g
           id="g64"
           transform="translate(193.457,544.8682)"
           style="fill:#b3b3b3">
          <path
             inkscape:connector-curvature="0"
             d="m 0,0 -10.105,0 0,0.988 c 0,2.98 -1.028,4.471 -3.079,4.471 -1.086,0 -1.916,-0.358 -2.498,-1.073 -0.58,-0.717 -0.869,-1.579 -0.869,-2.585 0,-2.129 1.524,-3.891 4.571,-5.285 5.017,-2.286 7.835,-3.66 8.453,-4.122 3.047,-2.287 4.572,-5.596 4.572,-9.932 0,-8.517 -4.889,-12.776 -14.662,-12.776 -4.637,0 -8.076,0.871 -10.317,2.613 -2.396,1.895 -3.593,4.917 -3.593,9.059 l 0,1.454 10.453,0 0,-0.989 c 0,-3.213 1.17,-4.821 3.513,-4.821 1.073,0 1.92,0.378 2.534,1.133 0.613,0.756 0.922,1.713 0.922,2.876 0,2.168 -1.465,3.909 -4.399,5.226 -4.9,2.284 -7.601,3.619 -8.103,4.007 -2.932,2.168 -4.399,5.362 -4.399,9.583 0,8.633 4.529,12.95 13.59,12.95 4.686,0 8.092,-1.017 10.221,-3.05 C -1.064,7.695 0,4.452 0,0"
             style="fill:#b3b3b3;fill-opacity:1;fill-rule:nonzero;stroke:none"
             id="path66" />
        </g>
        <path
           inkscape:connector-curvature="0"
           d="m 201.293,556.833 10.803,0 0,-41.467 -10.803,0 0,41.467 z"
           style="fill:#b3b3b3;fill-opacity:1;fill-rule:nonzero;stroke:none"
           id="path68" />
        <g
           id="g70"
           transform="translate(234.7754,530.583)"
           style="fill:#b3b3b3">
          <path
             inkscape:connector-curvature="0"
             d="m 0,0 0,7.315 13.939,0 0,-22.532 -7.318,0 -0.232,3.658 -0.116,0 c -1.24,-2.98 -4.22,-4.47 -8.943,-4.47 -5.072,0 -8.441,1.878 -10.105,5.633 -1.241,2.826 -1.858,8.129 -1.858,15.912 0,7.511 0.987,12.834 2.961,15.971 2.285,3.716 6.445,5.575 12.486,5.575 8.75,0 13.125,-4.648 13.125,-13.938 l -10.455,0 c 0,4.413 -1.025,6.62 -3.076,6.62 -1.705,0 -2.787,-0.966 -3.252,-2.903 -0.427,-1.666 -0.638,-5.439 -0.638,-11.325 0,-5.847 0.191,-9.62 0.58,-11.325 0.463,-1.935 1.49,-2.904 3.078,-2.904 1.238,0 2.129,0.543 2.67,1.627 C 3.465,-5.77 3.795,-3.407 3.832,0 L 0,0 z"
             style="fill:#b3b3b3;fill-opacity:1;fill-rule:nonzero;stroke:none"
             id="path72" />
        </g>
        <g
           id="g74"
           transform="translate(256.3086,515.3662)"
           style="fill:#b3b3b3">
          <path
             inkscape:connector-curvature="0"
             d="m 0,0 0,41.467 12.154,0 7.012,-25.555 0,25.555 10.104,0 L 29.27,0 17.35,0 10.105,25.613 10.105,0 0,0 z"
             style="fill:#b3b3b3;fill-opacity:1;fill-rule:nonzero;stroke:none"
             id="path76" />
        </g>
        <g
           id="g78"
           transform="translate(65.5508,461.7646)"
           style="fill:#b3b3b3">
          <path
             inkscape:connector-curvature="0"
             d="m 0,0 0,41.465 24.566,0 0,-8.827 -13.765,0 0,-7.086 12.894,0 0,-8.478 -12.894,0 0,-8.247 14.287,0 L 25.088,0 0,0 z"
             style="fill:#b3b3b3;fill-opacity:1;fill-rule:nonzero;stroke:none"
             id="path80" />
        </g>
        <g
           id="g82"
           transform="translate(92.2656,461.7646)"
           style="fill:#b3b3b3">
          <path
             inkscape:connector-curvature="0"
             d="m 0,0 0,41.465 12.152,0 7.012,-25.554 0,25.554 10.106,0 L 29.27,0 17.35,0 10.104,25.611 10.104,0 0,0 z"
             style="fill:#b3b3b3;fill-opacity:1;fill-rule:nonzero;stroke:none"
             id="path84" />
        </g>
        <g
           id="g86"
           transform="translate(138.2598,476.9795)"
           style="fill:#b3b3b3">
          <path
             inkscape:connector-curvature="0"
             d="m 0,0 0,7.318 13.938,0 0,-22.533 -7.315,0 -0.234,3.658 -0.118,0 c -1.238,-2.98 -4.218,-4.47 -8.943,-4.47 -5.07,0 -8.439,1.877 -10.103,5.632 -1.241,2.825 -1.86,8.131 -1.86,15.913 0,7.509 0.989,12.834 2.963,15.967 2.283,3.718 6.445,5.577 12.484,5.577 8.751,0 13.126,-4.645 13.126,-13.938 l -10.452,0 c 0,4.415 -1.027,6.622 -3.08,6.622 -1.703,0 -2.787,-0.97 -3.252,-2.904 -0.425,-1.666 -0.638,-5.441 -0.638,-11.324 0,-5.847 0.193,-9.622 0.58,-11.326 0.466,-1.935 1.49,-2.905 3.078,-2.905 1.238,0 2.129,0.543 2.672,1.629 C 3.465,-5.77 3.793,-3.407 3.834,0 L 0,0 z"
             style="fill:#b3b3b3;fill-opacity:1;fill-rule:nonzero;stroke:none"
             id="path88" />
        </g>
        <path
           inkscape:connector-curvature="0"
           d="m 153.883,503.229 10.801,0 0,-41.465 -10.801,0 0,41.465 z"
           style="fill:#b3b3b3;fill-opacity:1;fill-rule:nonzero;stroke:none"
           id="path90" />
        <g
           id="g92"
           transform="translate(167.0664,461.7646)"
           style="fill:#b3b3b3">
          <path
             inkscape:connector-curvature="0"
             d="m 0,0 0,41.465 12.152,0 7.012,-25.554 0,25.554 10.104,0 L 29.268,0 17.348,0 10.104,25.611 10.104,0 0,0 z"
             style="fill:#b3b3b3;fill-opacity:1;fill-rule:nonzero;stroke:none"
             id="path94" />
        </g>
        <g
           id="g96"
           transform="translate(199.1211,461.7646)"
           style="fill:#b3b3b3">
          <path
             inkscape:connector-curvature="0"
             d="m 0,0 0,41.465 24.566,0 0,-8.827 -13.763,0 0,-7.086 12.892,0 0,-8.478 -12.892,0 0,-8.247 14.285,0 L 25.088,0 0,0 z"
             style="fill:#b3b3b3;fill-opacity:1;fill-rule:nonzero;stroke:none"
             id="path98" />
        </g>
        <g
           id="g100"
           transform="translate(225.8359,461.7646)"
           style="fill:#b3b3b3">
          <path
             inkscape:connector-curvature="0"
             d="m 0,0 0,41.465 24.566,0 0,-8.827 -13.763,0 0,-7.086 12.892,0 0,-8.478 -12.892,0 0,-8.247 14.285,0 L 25.088,0 0,0 z"
             style="fill:#b3b3b3;fill-opacity:1;fill-rule:nonzero;stroke:none"
             id="path102" />
        </g>
        <g
           id="g104"
           transform="translate(263.3535,495.4482)"
           style="fill:#b3b3b3">
          <path
             inkscape:connector-curvature="0"
             d="m 0,0 0,-9.758 2.146,0 c 3.02,0 4.53,1.645 4.53,4.936 C 6.676,-1.607 5.146,0 2.09,0 L 0,0 z m -10.803,-33.684 0,41.465 16.899,0 c 7.588,0 11.383,-3.678 11.383,-11.036 0,-5.844 -2.362,-9.135 -7.084,-9.871 l 0,-0.117 c 2.515,-0.233 4.277,-1.113 5.283,-2.641 1.008,-1.531 1.511,-3.746 1.511,-6.649 l 0,-3.542 c 0,-3.293 0.174,-5.21 0.522,-5.751 0.193,-0.311 0.6,-0.735 1.221,-1.278 l 0,-0.58 -11.5,0 c -0.698,1.471 -1.045,4.103 -1.045,7.897 l 0,2.788 c 0,2.323 -0.262,3.891 -0.783,4.704 -0.524,0.813 -1.444,1.221 -2.76,1.221 l -2.844,0 0,-16.61 -10.803,0 z"
             style="fill:#b3b3b3;fill-opacity:1;fill-rule:nonzero;stroke:none"
             id="path106" />
        </g>
        <path
           inkscape:connector-curvature="0"
           d="m 283.154,503.229 10.801,0 0,-41.465 -10.801,0 0,41.465 z"
           style="fill:#b3b3b3;fill-opacity:1;fill-rule:nonzero;stroke:none"
           id="path108" />
        <g
           id="g110"
           transform="translate(296.3379,461.7646)"
           style="fill:#b3b3b3">
          <path
             inkscape:connector-curvature="0"
             d="m 0,0 0,41.465 12.152,0 7.012,-25.554 0,25.554 10.106,0 L 29.27,0 17.348,0 10.104,25.611 10.104,0 0,0 z"
             style="fill:#b3b3b3;fill-opacity:1;fill-rule:nonzero;stroke:none"
             id="path112" />
        </g>
        <g
           id="g114"
           transform="translate(342.332,476.9795)"
           style="fill:#b3b3b3">
          <path
             inkscape:connector-curvature="0"
             d="m 0,0 0,7.318 13.938,0 0,-22.533 -7.317,0 -0.232,3.658 -0.116,0 c -1.242,-2.98 -4.22,-4.47 -8.943,-4.47 -5.074,0 -8.441,1.877 -10.107,5.632 -1.241,2.825 -1.858,8.131 -1.858,15.913 0,7.509 0.989,12.834 2.963,15.967 2.283,3.718 6.445,5.577 12.484,5.577 8.749,0 13.126,-4.645 13.126,-13.938 l -10.454,0 c 0,4.415 -1.025,6.622 -3.078,6.622 -1.705,0 -2.787,-0.97 -3.252,-2.904 -0.425,-1.666 -0.638,-5.441 -0.638,-11.324 0,-5.847 0.193,-9.622 0.582,-11.326 0.463,-1.935 1.488,-2.905 3.076,-2.905 1.24,0 2.129,0.543 2.674,1.629 C 3.465,-5.77 3.795,-3.407 3.834,0 L 0,0 z"
             style="fill:#b3b3b3;fill-opacity:1;fill-rule:nonzero;stroke:none"
             id="path116" />
        </g>
        <g
           id="g118"
           transform="translate(357.1504,536.1006)"
           style="fill:#b3b3b3">
          <path
             inkscape:connector-curvature="0"
             d="m 0,0 c 0,-13.1 -10.619,-23.716 -23.717,-23.716 -13.096,0 -23.715,10.616 -23.715,23.716 0,13.098 10.619,23.715 23.715,23.715 C -10.619,23.715 0,13.098 0,0"
             style="fill:#b3b3b3;fill-opacity:1;fill-rule:nonzero;stroke:none"
             id="path120" />
        </g>
      </g>
    </g>
    <text
       style="font-size:28.29034233px"
       y="236.48569"
       x="672.84613"
       transform="scale(0.84624629,1.1816891)"
       id="text122">
      <tspan
         style="font-size:104.89329529px;font-variant:normal;font-weight:normal;font-stretch:condensed;writing-mode:lr-tb;fill:#ffffff;fill-opacity:1;fill-rule:nonzero;stroke:none;font-family:HelveticaNeue LT 67 MdCn;-inkscape-font-specification:HelveticaNeueLT-MediumCond"
         x="672.84613"
         y="236.48569"
         id="tspan124">&amp;</tspan>
    </text>
    <g
       transform="matrix(2.0934633,0,0,-2.785866,-105.98547,1728.6332)"
       id="g126"
       style="fill:#b3b3b3">
      <g
         id="g128"
         clip-path="url(#clipPath130-3)"
         style="fill:#b3b3b3">
        <g
           id="g134"
           transform="translate(385.7432,460.8652)"
           style="fill:#b3b3b3">
          <path
             d="m 0,0 -18.883,0 0,3.579 2.211,0 0,0.106 c -1.801,1.005 -2.701,2.514 -2.701,4.527 0,2.246 0.959,3.708 2.877,4.388 -1.918,1.145 -2.877,2.737 -2.877,4.772 0,3.065 1.672,4.598 5.018,4.598 l 14.355,0 0,-3.79 -12.951,0 c -2.27,0 -3.404,-0.761 -3.404,-2.282 0,-0.819 0.304,-1.509 0.912,-2.071 0.679,-0.631 1.603,-0.947 2.773,-0.947 l 12.67,0 0,-3.79 -12.951,0 c -2.27,0 -3.404,-0.773 -3.404,-2.317 0,-0.819 0.304,-1.509 0.912,-2.071 0.679,-0.608 1.603,-0.912 2.773,-0.912 L 0,3.79 0,0 z"
             style="fill:#b3b3b3;fill-opacity:1;fill-rule:nonzero;stroke:none"
             id="path136"
             inkscape:connector-curvature="0" />
        </g>
        <g
           id="g138"
           transform="translate(374.1963,490.3096)"
           style="fill:#b3b3b3">
          <path
             d="m 0,0 0,6.072 -1.018,0 C -3.826,6.072 -5.23,5.101 -5.23,3.159 -5.23,1.053 -3.615,0 -0.387,0 L 0,0 z M 2.598,9.862 2.598,0 3.686,0 C 7.521,0 9.441,1.053 9.441,3.159 9.441,4.212 8.973,5.007 8.037,5.545 7.289,5.967 6.352,6.177 5.229,6.177 l 0,3.58 c 2.083,0 3.738,-0.591 4.966,-1.773 1.229,-1.181 1.842,-2.801 1.842,-4.86 0,-2.036 -0.514,-3.568 -1.543,-4.598 C 8.973,-3.019 6.27,-3.79 2.387,-3.79 c -6.809,0 -10.213,2.327 -10.213,6.984 0,2.503 0.748,4.27 2.246,5.299 1.287,0.913 3.346,1.369 6.176,1.369 l 2.002,0 z"
             style="fill:#b3b3b3;fill-opacity:1;fill-rule:nonzero;stroke:none"
             id="path140"
             inkscape:connector-curvature="0" />
        </g>
        <g
           id="g142"
           transform="translate(374.1963,506.9463)"
           style="fill:#b3b3b3">
          <path
             d="m 0,0 0,6.072 -1.018,0 C -3.826,6.072 -5.23,5.101 -5.23,3.159 -5.23,1.053 -3.615,0 -0.387,0 L 0,0 z M 2.598,9.862 2.598,0 3.686,0 C 7.521,0 9.441,1.053 9.441,3.159 9.441,4.212 8.973,5.007 8.037,5.545 7.289,5.967 6.352,6.177 5.229,6.177 l 0,3.58 c 2.083,0 3.738,-0.591 4.966,-1.773 1.229,-1.181 1.842,-2.801 1.842,-4.86 0,-2.036 -0.514,-3.568 -1.543,-4.598 C 8.973,-3.019 6.27,-3.79 2.387,-3.79 c -6.809,0 -10.213,2.327 -10.213,6.984 0,2.503 0.748,4.27 2.246,5.299 1.287,0.913 3.346,1.369 6.176,1.369 l 2.002,0 z"
             style="fill:#b3b3b3;fill-opacity:1;fill-rule:nonzero;stroke:none"
             id="path144"
             inkscape:connector-curvature="0" />
        </g>
        <g
           id="g146"
           transform="translate(369.6689,518.6338)"
           style="fill:#b3b3b3">
          <path
             d="m 0,0 -2.809,0 0,2.597 -5.369,0 0,3.791 5.369,0 0,3.088 2.809,0 0,-3.088 11.295,0 c 0.752,0 1.273,0.122 1.566,0.368 0.293,0.246 0.44,0.696 0.44,1.351 0,0.562 -0.047,1.018 -0.141,1.369 l 2.84,0 C 16.213,8.68 16.32,7.662 16.32,6.423 16.32,5.042 16.037,4.082 15.475,3.545 14.818,2.913 13.576,2.597 11.746,2.597 L 0,2.597 0,0 z"
             style="fill:#b3b3b3;fill-opacity:1;fill-rule:nonzero;stroke:none"
             id="path148"
             inkscape:connector-curvature="0" />
        </g>
        <g
           id="g150"
           transform="translate(372.3701,550.9922)"
           style="fill:#b3b3b3">
          <path
             d="m 0,0 0,-3.579 -0.49,0 c -1.942,0 -2.914,-0.831 -2.914,-2.492 0,-1.802 0.82,-2.702 2.457,-2.702 0.726,0 1.281,0.186 1.668,0.561 0.384,0.374 0.754,1.075 1.105,2.106 l 0.842,2.421 c 0.492,1.427 1.158,2.468 2,3.123 0.844,0.656 1.99,0.984 3.439,0.984 1.92,0 3.383,-0.655 4.389,-1.966 0.912,-1.17 1.367,-2.772 1.367,-4.809 0,-2.269 -0.525,-3.895 -1.578,-4.877 -0.914,-0.89 -2.34,-1.334 -4.283,-1.334 l -0.701,0 0,3.369 0.597,0 c 2.247,0 3.37,0.983 3.37,2.948 0,2.059 -0.926,3.089 -2.774,3.089 -1.357,0 -2.281,-0.691 -2.773,-2.071 L 4.633,-8.317 c -0.514,-1.452 -1.18,-2.487 -2,-3.107 -0.819,-0.62 -1.965,-0.93 -3.44,-0.93 -1.73,0 -3.029,0.574 -3.896,1.72 C -5.568,-9.487 -6,-7.908 -6,-5.896 -6,-1.965 -4.281,0 -0.842,0 L 0,0 z"
             style="fill:#b3b3b3;fill-opacity:1;fill-rule:nonzero;stroke:none"
             id="path152"
             inkscape:connector-curvature="0" />
        </g>
        <g
           id="g154"
           transform="translate(378.8643,563.8027)"
           style="fill:#b3b3b3">
          <path
             d="M 0,0 0,3.58 C 2.41,3.438 4.199,2.911 5.369,1.996 c 1.334,-1.032 2,-2.662 2,-4.892 0,-2.58 -0.924,-4.433 -2.771,-5.559 -1.592,-0.985 -3.979,-1.478 -7.161,-1.478 -3.181,0 -5.568,0.492 -7.16,1.475 -1.824,1.123 -2.748,2.971 -2.771,5.545 -0.024,2.479 0.806,4.269 2.49,5.37 1.149,0.748 2.574,1.123 4.283,1.123 l 0,-3.791 c -2.668,0 -3.99,-0.9 -3.967,-2.702 0.024,-1.264 0.692,-2.141 2.001,-2.633 1.054,-0.397 2.761,-0.596 5.124,-0.596 2.364,0 4.071,0.2 5.126,0.6 1.332,0.494 1.999,1.376 1.999,2.647 C 4.586,-0.966 3.064,0 0,0"
             style="fill:#b3b3b3;fill-opacity:1;fill-rule:nonzero;stroke:none"
             id="path156"
             inkscape:connector-curvature="0" />
        </g>
        <g
           id="g158"
           transform="translate(378.9346,579.3838)"
           style="fill:#b3b3b3">
          <path
             d="m 0,0 -3.16,0 c 0.305,-0.374 0.633,-1.064 0.984,-2.07 0.42,-1.241 0.678,-1.954 0.772,-2.141 0.49,-1.03 1.509,-1.544 3.052,-1.544 0.844,0 1.51,0.198 2,0.596 0.563,0.422 0.844,1.006 0.844,1.755 C 4.492,-1.135 2.994,0 0,0 m -7.922,3.58 10.832,0 c 0.891,0 1.336,0.327 1.336,0.983 0,0.281 -0.047,0.492 -0.141,0.631 l 2.487,0 C 6.9,4.539 7.055,3.919 7.055,3.335 7.055,1.299 6.211,0.234 4.527,0.141 l 0,-0.071 c 1.848,-1.006 2.772,-2.574 2.772,-4.702 0,-3.276 -1.766,-4.914 -5.299,-4.914 -1.941,0 -3.369,0.409 -4.281,1.229 -0.68,0.608 -1.229,1.661 -1.651,3.158 l -0.806,2.948 C -4.949,-1.438 -5.195,-0.9 -5.477,-0.596 -5.826,-0.198 -6.389,0 -7.16,0 c -1.871,0 -2.809,-0.865 -2.809,-2.597 0,-1.919 1.205,-2.878 3.615,-2.878 l 0,-3.58 c -2.082,0 -3.615,0.48 -4.597,1.44 -1.076,1.053 -1.613,2.784 -1.613,5.194 0,1.801 0.351,3.217 1.054,4.246 0.797,1.17 1.992,1.755 3.588,1.755"
             style="fill:#b3b3b3;fill-opacity:1;fill-rule:nonzero;stroke:none"
             id="path160"
             inkscape:connector-curvature="0" />
        </g>
        <path
           d="m 385.743,587.388 -25.059,0 0,3.79 25.059,0 0,-3.79 z"
           style="fill:#b3b3b3;fill-opacity:1;fill-rule:nonzero;stroke:none"
           id="path162"
           inkscape:connector-curvature="0" />
        <g
           id="g164"
           transform="translate(374.1963,598.6523)"
           style="fill:#b3b3b3">
          <path
             d="m 0,0 0,6.072 -1.018,0 C -3.826,6.072 -5.23,5.101 -5.23,3.159 -5.23,1.053 -3.615,0 -0.387,0 L 0,0 z M 2.598,9.862 2.598,0 3.686,0 C 7.521,0 9.441,1.053 9.441,3.159 9.441,4.212 8.973,5.007 8.037,5.545 7.289,5.967 6.352,6.177 5.229,6.177 l 0,3.58 c 2.083,0 3.738,-0.591 4.966,-1.773 1.229,-1.181 1.842,-2.801 1.842,-4.86 0,-2.036 -0.514,-3.568 -1.543,-4.598 C 8.973,-3.019 6.27,-3.79 2.387,-3.79 c -6.809,0 -10.213,2.327 -10.213,6.984 0,2.503 0.748,4.27 2.246,5.299 1.287,0.913 3.346,1.369 6.176,1.369 l 2.002,0 z"
             style="fill:#b3b3b3;fill-opacity:1;fill-rule:nonzero;stroke:none"
             id="path166"
             inkscape:connector-curvature="0" />
        </g>
        <g
           id="g168"
           transform="translate(86.959,519.6855)"
           style="fill:#b3b3b3">
          <path
             d="m 0,0 -21.217,-4.811 0,4.415 16.723,2.959 0,0.078 -16.723,3.156 0,4.81 16.723,3.156 0,0.079 -16.723,2.919 0,4.259 L 0,16.168 0,11.396 -16.484,8.084 l 0,-0.08 L 0,4.969 0,0 z"
             style="fill:#b3b3b3;fill-opacity:1;fill-rule:nonzero;stroke:none"
             id="path170"
             inkscape:connector-curvature="0" />
        </g>
        <g
           id="g172"
           transform="translate(86.959,543.7783)"
           style="fill:#b3b3b3">
          <path
             d="m 0,0 -28.156,0 0,4.259 9.228,0 0.078,0.119 c -1.945,1.263 -2.918,2.997 -2.918,5.205 0,3.522 1.92,5.284 5.758,5.284 l 16.01,0 0,-4.258 -14.551,0 c -1.367,0 -2.347,-0.224 -2.937,-0.671 -0.592,-0.446 -0.889,-1.208 -0.889,-2.286 0,-0.92 0.342,-1.696 1.025,-2.328 0.764,-0.709 1.801,-1.065 3.116,-1.065 L 0,4.259 0,0 z"
             style="fill:#b3b3b3;fill-opacity:1;fill-rule:nonzero;stroke:none"
             id="path174"
             inkscape:connector-curvature="0" />
        </g>
        <g
           id="g176"
           transform="translate(73.9844,566.8477)"
           style="fill:#b3b3b3">
          <path
             d="m 0,0 0,6.824 -1.143,0 C -4.299,6.824 -5.875,5.73 -5.875,3.551 -5.875,1.184 -4.061,0 -0.432,0 L 0,0 z M 2.918,11.082 2.918,0 4.141,0 c 4.31,0 6.468,1.184 6.468,3.551 0,1.18 -0.525,2.075 -1.578,2.679 C 8.189,6.704 7.139,6.941 5.877,6.941 l 0,4.022 c 2.34,0 4.199,-0.663 5.578,-1.989 1.381,-1.329 2.072,-3.151 2.072,-5.464 0,-2.287 -0.578,-4.01 -1.736,-5.166 -1.707,-1.735 -4.746,-2.604 -9.109,-2.604 -7.651,0 -11.475,2.616 -11.475,7.85 0,2.812 0.842,4.797 2.523,5.954 1.446,1.024 3.76,1.538 6.942,1.538 l 2.246,0 z"
             style="fill:#b3b3b3;fill-opacity:1;fill-rule:nonzero;stroke:none"
             id="path178"
             inkscape:connector-curvature="0" />
        </g>
        <g
           id="g180"
           transform="translate(86.959,581.8721)"
           style="fill:#b3b3b3">
          <path
             d="m 0,0 -21.217,0 0,4.26 3.315,0 c -2.578,1.039 -3.866,2.703 -3.866,4.994 0,0.319 0.053,0.665 0.159,1.039 l 4.336,0 C -17.43,9.662 -17.51,9.071 -17.51,8.519 c 0,-2.839 1.606,-4.259 4.811,-4.259 L 0,4.26 0,0 z"
             style="fill:#b3b3b3;fill-opacity:1;fill-rule:nonzero;stroke:none"
             id="path182"
             inkscape:connector-curvature="0" />
        </g>
        <g
           id="g184"
           transform="translate(73.9844,598.1602)"
           style="fill:#b3b3b3">
          <path
             d="m 0,0 0,6.82 -1.143,0 C -4.299,6.82 -5.875,5.729 -5.875,3.548 -5.875,1.181 -4.061,0 -0.432,0 L 0,0 z M 2.918,11.079 2.918,0 4.141,0 c 4.31,0 6.468,1.181 6.468,3.548 0,1.183 -0.525,2.076 -1.578,2.681 C 8.189,6.702 7.139,6.937 5.877,6.937 l 0,4.025 c 2.34,0 4.199,-0.665 5.578,-1.992 1.381,-1.328 2.072,-3.149 2.072,-5.461 0,-2.287 -0.578,-4.01 -1.736,-5.166 -1.707,-1.735 -4.746,-2.604 -9.109,-2.604 -7.651,0 -11.475,2.616 -11.475,7.848 0,2.813 0.842,4.798 2.523,5.954 1.446,1.026 3.76,1.538 6.942,1.538 l 2.246,0 z"
             style="fill:#b3b3b3;fill-opacity:1;fill-rule:nonzero;stroke:none"
             id="path186"
             inkscape:connector-curvature="0" />
        </g>
        <text
           transform="matrix(1,0,0,-1,482.543,832.6406)"
           id="text188"
           style="fill:#b3b3b3">
          <tspan
             style="font-size:12px;font-style:italic;font-variant:normal;font-weight:normal;font-stretch:normal;writing-mode:lr-tb;fill:#b3b3b3;fill-opacity:1;fill-rule:nonzero;stroke:none;font-family:Meta Normal;-inkscape-font-specification:MetaNormal-Italic"
             x="0 6.7319999 12.708 16.02 19.176001 25.728001 28.884001 32.436001 35.591999 41.964001 48.515999 51.216 54.324001 60.695999 67.416"
             y="0"
             sodipodi:role="line"
             id="tspan190">definition logo</tspan>
        </text>
      </g>
    </g>
    <g
       clip-path="url(#clipPath4036)"
       id="g4034"
       transform="matrix(0.6862921,0,0,-0.78001243,421.90904,1012.7507)">
      <g
         transform="translate(414.7861,349.1592)"
         id="g4040">
        <path
           id="path4042"
           style="fill:#ffffff;fill-opacity:1;fill-rule:evenodd;stroke:none"
           d="m 0,0 26.701,0 c 8.019,0 14.117,-0.745 17.546,-2.66 3.445,-1.906 4.967,-5.338 4.967,-9.916 l 0,-22.126 -14.124,0 0,20.989 c 0,2.67 -0.761,4.195 -1.906,4.953 -1.142,0.762 -3.803,1.141 -7.622,1.141 l -11.445,0 0,-27.083 L 0,-34.702 0,0 z"
           inkscape:connector-curvature="0" />
      </g>
      <path
         id="path4044"
         style="fill:#ffffff;fill-opacity:1;fill-rule:evenodd;stroke:none"
         d="m 211.866,314.457 -14.875,0 0,47.684 14.875,0 0,-47.684 z"
         inkscape:connector-curvature="0" />
      <g
         transform="translate(148.939,334.2939)"
         id="g4046">
        <path
           id="path4048"
           style="fill:#ffffff;fill-opacity:1;fill-rule:evenodd;stroke:none"
           d="m 0,0 0,8.391 36.608,0 0,-28.228 -33.182,0 c -6.106,0 -11.059,0.378 -14.117,1.148 -3.431,0.382 -6.481,1.53 -9.523,3.052 -3.817,1.912 -6.489,4.574 -8.396,7.63 -1.916,3.048 -2.674,6.859 -2.674,11.05 0,8.399 2.674,14.496 8.404,18.695 5.708,3.818 14.486,6.109 26.306,6.109 l 33.182,0 0,-8.394 -33.182,0 c -6.106,0 -10.682,-1.14 -13.342,-3.81 -2.68,-2.678 -4.206,-6.486 -4.206,-12.209 0,-4.955 1.526,-8.778 4.206,-11.067 2.66,-2.289 7.236,-3.43 13.342,-3.43 l 17.553,0 L 20.979,0 0,0 z"
           inkscape:connector-curvature="0" />
      </g>
      <g
         transform="translate(249.2451,314.0781)"
         id="g4050">
        <path
           id="path4052"
           style="fill:#b5dc17;fill-opacity:1;fill-rule:evenodd;stroke:none"
           d="m 0,0 c -8.766,0 -16.018,1.526 -20.977,4.579 -5.337,3.434 -8.007,7.63 -8.007,13.344 0,5.336 2.67,9.924 8.007,12.968 4.959,3.445 12.211,4.967 20.977,4.967 0.774,0 1.532,-0.01 2.277,-0.037 7.694,-0.247 13.8,-1.789 18.326,-4.93 5.341,-3.044 8.007,-7.632 8.007,-12.968 0,-5.714 -2.666,-9.91 -7.629,-13.344 C 15.642,1.526 8.775,0 0,0 m 0,7.244 c 4.204,0 7.639,1.152 9.928,2.674 2.289,1.919 3.805,4.583 3.805,8.005 0,3.058 -1.516,5.726 -3.805,7.64 -2.289,1.899 -5.724,2.663 -9.928,2.663 -4.57,0 -8.003,-0.764 -10.292,-2.663 -2.287,-1.914 -3.429,-4.582 -3.429,-7.64 0,-3.422 1.142,-6.086 3.429,-8.005 C -8.003,8.396 -4.57,7.244 0,7.244"
           inkscape:connector-curvature="0" />
      </g>
      <g
         transform="translate(313.3281,314.457)"
         id="g4054">
        <path
           id="path4056"
           style="fill:#ffffff;fill-opacity:1;fill-rule:evenodd;stroke:none"
           d="m 0,0 -26.701,0 0,47.684 14.49,0 0,-12.982 12.211,0 c 5.341,0 9.535,-0.373 12.966,-1.134 3.444,-0.766 6.104,-2.289 8.395,-4.198 1.91,-1.523 3.435,-3.044 4.569,-4.967 0.768,-1.896 1.54,-4.187 1.54,-6.468 0,-5.731 -2.674,-9.918 -7.248,-12.972 C 15.64,1.53 9.154,0 0.769,0 L 0,0 z m 0,7.634 c 4.188,0 7.252,0.76 8.77,2.281 2.301,1.15 3.439,3.82 3.439,7.25 0,3.824 -1.138,6.106 -3.439,8.02 -1.905,1.141 -5.018,2.187 -8.833,2.187 -0.795,0 -1.791,0.096 -3.752,0.096 l -8.396,0 0,-19.834 9.537,0 2.674,0 z"
           inkscape:connector-curvature="0" />
      </g>
      <g
         transform="translate(374.7363,321.7031)"
         id="g4058">
        <path
           id="path4060"
           style="fill:#ffffff;fill-opacity:1;fill-rule:evenodd;stroke:none"
           d="m 0,0 12.588,0 0,6.876 -12.588,0 -4.195,0 c -3.427,0 -5.656,0.137 -7.038,-0.628 -1.372,-0.761 -1.732,-1.664 -1.732,-3.196 0,-1.144 0.408,-1.866 1.52,-2.664 C -10.83,-0.053 -8.39,0 -5.337,0 L 0,0 z m 0,-7.246 -11.069,0 c -5.337,0 -9.525,0.763 -12.577,2.678 -2.67,1.894 -4.19,4.187 -4.19,7.237 0,4.207 1.52,6.876 4.95,8.773 3.438,1.528 8.773,2.677 16.792,2.677 l 6.094,0 12.588,0 0,0.761 c 0,1.909 -1.144,3.435 -2.672,4.2 C 8.014,19.837 4.577,20.601 0,20.601 l -0.372,0 -24.037,0 0,6.855 24.409,0 4.97,0 c 7.618,0 12.959,-0.745 16.772,-3.045 3.818,-2.287 5.722,-5.331 5.722,-9.913 l 0,-21.744 -27.464,0 z"
           inkscape:connector-curvature="0" />
      </g>
      <g
         transform="translate(65.7798,336.2012)"
         id="g4062">
        <path
           id="path4064"
           style="fill:#b5dc17;fill-opacity:1;fill-rule:evenodd;stroke:none"
           d="m 0,0 c 3.815,-3.429 19.455,-17.172 19.455,-17.172 0,0 -18.097,-14.384 -19.629,-15.53 -2.478,-1.983 -5.325,0.805 -3.257,3.342 9.392,7.808 6.851,21.435 -0.273,26.982 C -5.564,-0.366 -2.464,2.793 0,0"
           inkscape:connector-curvature="0" />
      </g>
      <g
         transform="translate(65.7798,377.082)"
         id="g4066">
        <path
           id="path4068"
           style="fill:#b5dc17;fill-opacity:1;fill-rule:evenodd;stroke:none"
           d="m 0,0 c 3.815,-3.429 19.455,-17.172 19.455,-17.172 0,0 -18.097,-14.385 -19.629,-15.53 -2.478,-1.982 -5.325,0.808 -3.257,3.342 9.392,7.81 6.851,21.436 -0.273,26.98 C -5.564,-0.366 -2.464,2.794 0,0"
           inkscape:connector-curvature="0" />
      </g>
      <g
         transform="translate(90.3091,355.6514)"
         id="g4070">
        <path
           id="path4072"
           style="fill:#b5dc17;fill-opacity:1;fill-rule:evenodd;stroke:none"
           d="m 0,0 c 3.815,-3.426 19.455,-17.174 19.455,-17.174 0,0 -18.095,-14.385 -19.629,-15.527 -2.478,-1.983 -5.327,0.803 -3.253,3.342 9.386,7.806 6.846,21.433 -0.277,26.975 C -5.562,-0.368 -2.465,2.791 0,0"
           inkscape:connector-curvature="0" />
      </g>
      <g
         transform="translate(470.8613,349.1592)"
         id="g4074">
        <path
           id="path4076"
           style="fill:#ffffff;fill-opacity:1;fill-rule:evenodd;stroke:none"
           d="m 0,0 10.303,0 0,12.981 14.107,0 0,-12.981 15.255,0 0,-6.855 -15.255,0 0,-14.112 c 0,-2.277 0.761,-4.196 2.283,-5.342 1.154,-0.759 3.445,-1.528 6.87,-1.528 l 6.102,0 0,-6.865 -12.972,0 c -5.341,0 -9.529,1.147 -12.199,3.046 -3.048,1.526 -4.191,4.588 -4.191,8.019 l 0,16.782 L 0,-6.855 0,0 z"
           inkscape:connector-curvature="0" />
      </g>
      <g
         transform="translate(288.356,297.8047)"
         id="g4078">
        <path
           id="path4080"
           style="fill:#ffffff;fill-opacity:1;fill-rule:nonzero;stroke:none"
           d="m 0,0 1.709,-6.442 c 0.342,-1.418 0.684,-2.76 0.92,-4.075 l 0.079,0 c 0.289,1.288 0.71,2.657 1.13,4.049 L 5.916,0 7.861,0 9.833,-6.362 c 0.474,-1.498 0.841,-2.867 1.13,-4.155 l 0.079,0 c 0.21,1.288 0.552,2.629 0.973,4.127 L 13.83,0 l 2.288,0 -4.103,-12.726 -2.103,0 -1.945,6.075 C 7.52,-5.206 7.152,-3.944 6.835,-2.445 l -0.052,0 C 6.467,-3.97 6.073,-5.312 5.627,-6.679 l -2.051,-6.047 -2.103,0 L -2.366,0 0,0 z"
           inkscape:connector-curvature="0" />
      </g>
      <g
         transform="translate(322.7461,292.7041)"
         id="g4082">
        <path
           id="path4084"
           style="fill:#ffffff;fill-opacity:1;fill-rule:nonzero;stroke:none"
           d="M 0,0 C 0.025,1.445 -0.605,3.76 -3.182,3.76 -5.549,3.76 -6.547,1.604 -6.732,0 L 0,0 z m -6.757,-1.656 c 0.052,-3.129 2.024,-4.418 4.338,-4.418 1.655,0 2.682,0.291 3.523,0.633 L 1.523,-7.072 C 0.71,-7.44 -0.711,-7.887 -2.735,-7.887 c -3.891,0 -6.257,2.602 -6.257,6.415 0,3.865 2.287,6.888 5.994,6.888 4.154,0 5.232,-3.655 5.232,-5.995 0,-0.474 -0.026,-0.841 -0.079,-1.105 l -8.912,0.028 z"
           inkscape:connector-curvature="0" />
      </g>
      <g
         transform="translate(355.8994,291.5732)"
         id="g4086">
        <path
           id="path4088"
           style="fill:#ffffff;fill-opacity:1;fill-rule:nonzero;stroke:none"
           d="m 0,0 c -2.525,0.052 -5.39,-0.395 -5.39,-2.865 0,-1.526 0.999,-2.208 2.156,-2.208 1.682,0 2.76,1.052 3.129,2.128 C -0.026,-2.707 0,-2.445 0,-2.209 L 0,0 z m 2.261,-3.444 c 0,-1.105 0.052,-2.183 0.184,-3.05 l -2.077,0 -0.212,1.603 -0.077,0 c -0.684,-0.998 -2.077,-1.892 -3.891,-1.892 -2.577,0 -3.893,1.814 -3.893,3.655 0,3.075 2.735,4.758 7.652,4.732 l 0,0.263 c 0,1.051 -0.289,2.97 -2.892,2.945 -1.209,0 -2.445,-0.342 -3.339,-0.947 l -0.527,1.551 c 1.054,0.657 2.605,1.105 4.208,1.105 3.918,0 4.864,-2.656 4.864,-5.207 l 0,-4.758 z"
           inkscape:connector-curvature="0" />
      </g>
      <g
         transform="translate(369.7793,293.835)"
         id="g4090">
        <path
           id="path4092"
           style="fill:#ffffff;fill-opacity:1;fill-rule:nonzero;stroke:none"
           d="m 0,0 c 0,1.498 -0.024,2.787 -0.104,3.97 l 2.025,0 0.104,-2.498 0.079,0 c 0.58,1.71 1.998,2.787 3.55,2.787 0.236,0 0.42,-0.027 0.63,-0.079 l 0,-2.157 C 6.021,2.051 5.785,2.076 5.471,2.076 3.84,2.076 2.684,0.842 2.367,-0.868 2.315,-1.21 2.289,-1.578 2.289,-1.973 l 0,-6.783 -2.313,0 L 0,0 z"
           inkscape:connector-curvature="0" />
      </g>
      <g
         transform="translate(393.8379,292.7041)"
         id="g4094">
        <path
           id="path4096"
           style="fill:#ffffff;fill-opacity:1;fill-rule:nonzero;stroke:none"
           d="M 0,0 C 0.025,1.445 -0.605,3.76 -3.182,3.76 -5.549,3.76 -6.547,1.604 -6.731,0 L 0,0 z m -6.758,-1.656 c 0.053,-3.129 2.026,-4.418 4.338,-4.418 1.657,0 2.684,0.291 3.524,0.633 l 0.42,-1.631 c -0.815,-0.368 -2.235,-0.815 -4.258,-0.815 -3.891,0 -6.258,2.602 -6.258,6.415 0,3.865 2.287,6.888 5.994,6.888 4.154,0 5.231,-3.655 5.231,-5.995 0,-0.474 -0.024,-0.841 -0.077,-1.105 l -8.914,0.028 z"
           inkscape:connector-curvature="0" />
      </g>
      <g
         transform="translate(420.3135,293.835)"
         id="g4098">
        <path
           id="path4100"
           style="fill:#ffffff;fill-opacity:1;fill-rule:nonzero;stroke:none"
           d="m 0,0 c 0,1.498 -0.025,2.787 -0.105,3.97 l 2.025,0 0.105,-2.498 0.078,0 c 0.579,1.71 1.998,2.787 3.549,2.787 0.237,0 0.421,-0.027 0.631,-0.079 l 0,-2.157 C 6.021,2.051 5.783,2.076 5.469,2.076 3.838,2.076 2.682,0.842 2.367,-0.868 2.313,-1.21 2.287,-1.578 2.287,-1.973 l 0,-6.783 -2.312,0 L 0,0 z"
           inkscape:connector-curvature="0" />
      </g>
      <g
         transform="translate(444.3701,292.7041)"
         id="g4102">
        <path
           id="path4104"
           style="fill:#ffffff;fill-opacity:1;fill-rule:nonzero;stroke:none"
           d="M 0,0 C 0.025,1.445 -0.605,3.76 -3.181,3.76 -5.548,3.76 -6.548,1.604 -6.731,0 L 0,0 z m -6.757,-1.656 c 0.053,-3.129 2.025,-4.418 4.338,-4.418 1.655,0 2.682,0.291 3.523,0.633 l 0.42,-1.631 C 0.71,-7.44 -0.711,-7.887 -2.735,-7.887 c -3.891,0 -6.258,2.602 -6.258,6.415 0,3.865 2.289,6.888 5.995,6.888 4.155,0 5.232,-3.655 5.232,-5.995 0,-0.474 -0.026,-0.841 -0.079,-1.105 l -8.912,0.028 z"
           inkscape:connector-curvature="0" />
      </g>
      <g
         transform="translate(464.0615,291.5732)"
         id="g4106">
        <path
           id="path4108"
           style="fill:#ffffff;fill-opacity:1;fill-rule:nonzero;stroke:none"
           d="m 0,0 c -2.523,0.052 -5.389,-0.395 -5.389,-2.865 0,-1.526 0.999,-2.208 2.156,-2.208 1.682,0 2.761,1.052 3.129,2.128 C -0.025,-2.707 0,-2.445 0,-2.209 L 0,0 z m 2.263,-3.444 c 0,-1.105 0.051,-2.183 0.182,-3.05 l -2.076,0 -0.211,1.603 -0.078,0 c -0.684,-0.998 -2.078,-1.892 -3.892,-1.892 -2.576,0 -3.891,1.814 -3.891,3.655 0,3.075 2.734,4.758 7.65,4.732 l 0,0.263 c 0,1.051 -0.289,2.97 -2.891,2.945 -1.209,0 -2.445,-0.342 -3.339,-0.947 l -0.526,1.551 c 1.052,0.657 2.603,1.105 4.206,1.105 3.918,0 4.866,-2.656 4.866,-5.207 l 0,-4.758 z"
           inkscape:connector-curvature="0" />
      </g>
      <g
         transform="translate(486.5947,292.625)"
         id="g4110">
        <path
           id="path4112"
           style="fill:#ffffff;fill-opacity:1;fill-rule:nonzero;stroke:none"
           d="m 0,0 c 0,0.315 -0.027,0.684 -0.105,0.999 -0.342,1.447 -1.605,2.656 -3.339,2.656 -2.393,0 -3.814,-2.103 -3.814,-4.89 0,-2.604 1.289,-4.733 3.76,-4.733 1.553,0 2.972,1.052 3.393,2.76 0.078,0.315 0.105,0.632 0.105,1 L 0,0 z m 2.313,11.122 0,-15.381 c 0,-1.131 0.027,-2.42 0.105,-3.287 l -2.076,0 -0.107,2.209 -0.052,0 c -0.709,-1.42 -2.234,-2.498 -4.311,-2.498 -3.077,0 -5.47,2.603 -5.47,6.468 -0.024,4.261 2.631,6.836 5.707,6.836 1.971,0 3.287,-0.921 3.838,-1.919 l 0.053,0 0,7.572 2.313,0 z"
           inkscape:connector-curvature="0" />
      </g>
      <g
         transform="translate(501.4746,297.8047)"
         id="g4114">
        <path
           id="path4116"
           style="fill:#ffffff;fill-opacity:1;fill-rule:nonzero;stroke:none"
           d="m 0,0 2.762,-7.519 c 0.314,-0.841 0.631,-1.84 0.842,-2.603 l 0.052,0 c 0.237,0.763 0.498,1.734 0.815,2.656 L 6.994,0 9.439,0 5.969,-9.071 c -1.656,-4.364 -2.787,-6.599 -4.365,-7.992 -1.157,-0.973 -2.26,-1.368 -2.838,-1.473 l -0.579,1.945 c 0.579,0.159 1.34,0.528 2.025,1.131 0.63,0.5 1.392,1.395 1.945,2.577 0.105,0.237 0.183,0.395 0.183,0.552 0,0.132 -0.053,0.314 -0.183,0.579 L -2.523,0 0,0 z"
           inkscape:connector-curvature="0" />
      </g>
      <g
         transform="translate(414.7861,636.7783)"
         id="g4118">
        <path
           id="path4120"
           style="fill:#000000;fill-opacity:1;fill-rule:evenodd;stroke:none"
           d="m 0,0 26.701,0 c 8.019,0 14.117,-0.745 17.546,-2.66 3.445,-1.906 4.967,-5.338 4.967,-9.916 l 0,-22.126 -14.124,0 0,20.989 c 0,2.67 -0.761,4.195 -1.906,4.953 -1.142,0.762 -3.803,1.141 -7.622,1.141 l -11.445,0 0,-27.083 L 0,-34.702 0,0 z"
           inkscape:connector-curvature="0" />
      </g>
      <path
         id="path4122"
         style="fill:#000000;fill-opacity:1;fill-rule:evenodd;stroke:none"
         d="m 211.866,602.076 -14.875,0 0,47.684 14.875,0 0,-47.684 z"
         inkscape:connector-curvature="0" />
      <g
         transform="translate(148.939,621.9131)"
         id="g4124">
        <path
           id="path4126"
           style="fill:#000000;fill-opacity:1;fill-rule:evenodd;stroke:none"
           d="m 0,0 0,8.391 36.608,0 0,-28.228 -33.182,0 c -6.106,0 -11.059,0.378 -14.117,1.148 -3.431,0.382 -6.481,1.53 -9.523,3.052 -3.817,1.912 -6.489,4.574 -8.396,7.63 -1.916,3.048 -2.674,6.859 -2.674,11.05 0,8.399 2.674,14.496 8.404,18.695 5.708,3.818 14.486,6.109 26.306,6.109 l 33.182,0 0,-8.394 -33.182,0 c -6.106,0 -10.682,-1.14 -13.342,-3.81 -2.68,-2.678 -4.206,-6.486 -4.206,-12.209 0,-4.955 1.526,-8.778 4.206,-11.067 2.66,-2.289 7.236,-3.43 13.342,-3.43 l 17.553,0 L 20.979,0 0,0 z"
           inkscape:connector-curvature="0" />
      </g>
      <g
         transform="translate(249.2451,601.6973)"
         id="g4128">
        <path
           id="path4130"
           style="fill:#b5dc17;fill-opacity:1;fill-rule:evenodd;stroke:none"
           d="m 0,0 c -8.766,0 -16.018,1.526 -20.977,4.579 -5.337,3.434 -8.007,7.63 -8.007,13.344 0,5.336 2.67,9.924 8.007,12.968 4.959,3.445 12.211,4.967 20.977,4.967 0.774,0 1.532,-0.01 2.277,-0.037 7.694,-0.247 13.8,-1.789 18.326,-4.93 5.341,-3.044 8.007,-7.632 8.007,-12.968 0,-5.714 -2.666,-9.91 -7.629,-13.344 C 15.642,1.526 8.775,0 0,0 m 0,7.244 c 4.204,0 7.639,1.152 9.928,2.674 2.289,1.919 3.805,4.583 3.805,8.005 0,3.058 -1.516,5.726 -3.805,7.64 -2.289,1.899 -5.724,2.663 -9.928,2.663 -4.57,0 -8.003,-0.764 -10.292,-2.663 -2.287,-1.914 -3.429,-4.582 -3.429,-7.64 0,-3.422 1.142,-6.086 3.429,-8.005 C -8.003,8.396 -4.57,7.244 0,7.244"
           inkscape:connector-curvature="0" />
      </g>
      <g
         transform="translate(313.3281,602.0762)"
         id="g4132">
        <path
           id="path4134"
           style="fill:#000000;fill-opacity:1;fill-rule:evenodd;stroke:none"
           d="m 0,0 -26.701,0 0,47.684 14.49,0 0,-12.982 12.211,0 c 5.341,0 9.535,-0.373 12.966,-1.134 3.444,-0.766 6.104,-2.289 8.395,-4.198 1.91,-1.523 3.435,-3.044 4.569,-4.967 0.768,-1.896 1.54,-4.187 1.54,-6.468 0,-5.731 -2.674,-9.918 -7.248,-12.972 C 15.64,1.53 9.154,0 0.769,0 L 0,0 z m 0,7.634 c 4.188,0 7.252,0.76 8.77,2.281 2.301,1.15 3.439,3.82 3.439,7.25 0,3.824 -1.138,6.106 -3.439,8.02 -1.905,1.141 -5.018,2.187 -8.833,2.187 -0.795,0 -1.791,0.096 -3.752,0.096 l -8.396,0 0,-19.834 9.537,0 2.674,0 z"
           inkscape:connector-curvature="0" />
      </g>
      <g
         transform="translate(374.7363,609.3223)"
         id="g4136">
        <path
           id="path4138"
           style="fill:#000000;fill-opacity:1;fill-rule:evenodd;stroke:none"
           d="m 0,0 12.588,0 0,6.876 -12.588,0 -4.195,0 c -3.427,0 -5.656,0.137 -7.038,-0.628 -1.372,-0.761 -1.732,-1.664 -1.732,-3.196 0,-1.144 0.408,-1.866 1.52,-2.664 C -10.83,-0.053 -8.39,0 -5.337,0 L 0,0 z m 0,-7.246 -11.069,0 c -5.337,0 -9.525,0.763 -12.577,2.678 -2.67,1.894 -4.19,4.187 -4.19,7.237 0,4.207 1.52,6.876 4.95,8.773 3.438,1.528 8.773,2.677 16.792,2.677 l 6.094,0 12.588,0 0,0.761 c 0,1.909 -1.144,3.435 -2.672,4.2 C 8.014,19.837 4.577,20.601 0,20.601 l -0.372,0 -24.037,0 0,6.855 24.409,0 4.97,0 c 7.618,0 12.959,-0.745 16.772,-3.045 3.818,-2.287 5.722,-5.331 5.722,-9.913 l 0,-21.744 -27.464,0 z"
           inkscape:connector-curvature="0" />
      </g>
      <g
         transform="translate(65.7798,623.8203)"
         id="g4140">
        <path
           id="path4142"
           style="fill:#b5dc17;fill-opacity:1;fill-rule:evenodd;stroke:none"
           d="m 0,0 c 3.815,-3.429 19.455,-17.172 19.455,-17.172 0,0 -18.097,-14.384 -19.629,-15.53 -2.478,-1.983 -5.325,0.805 -3.257,3.342 9.392,7.808 6.851,21.435 -0.273,26.982 C -5.564,-0.366 -2.464,2.793 0,0"
           inkscape:connector-curvature="0" />
      </g>
      <g
         transform="translate(65.7798,664.7012)"
         id="g4144">
        <path
           id="path4146"
           style="fill:#b5dc17;fill-opacity:1;fill-rule:evenodd;stroke:none"
           d="m 0,0 c 3.815,-3.429 19.455,-17.172 19.455,-17.172 0,0 -18.097,-14.385 -19.629,-15.53 -2.478,-1.982 -5.325,0.808 -3.257,3.342 9.392,7.81 6.851,21.436 -0.273,26.98 C -5.564,-0.366 -2.464,2.794 0,0"
           inkscape:connector-curvature="0" />
      </g>
      <g
         transform="translate(90.3091,643.2705)"
         id="g4148">
        <path
           id="path4150"
           style="fill:#b5dc17;fill-opacity:1;fill-rule:evenodd;stroke:none"
           d="m 0,0 c 3.815,-3.426 19.455,-17.174 19.455,-17.174 0,0 -18.095,-14.385 -19.629,-15.527 -2.478,-1.983 -5.327,0.803 -3.253,3.342 9.386,7.806 6.846,21.433 -0.277,26.975 C -5.562,-0.368 -2.465,2.791 0,0"
           inkscape:connector-curvature="0" />
      </g>
      <g
         transform="translate(470.8613,636.7783)"
         id="g4152">
        <path
           id="path4154"
           style="fill:#000000;fill-opacity:1;fill-rule:evenodd;stroke:none"
           d="m 0,0 10.303,0 0,12.981 14.107,0 0,-12.981 15.255,0 0,-6.855 -15.255,0 0,-14.112 c 0,-2.277 0.761,-4.196 2.283,-5.342 1.154,-0.759 3.445,-1.528 6.87,-1.528 l 6.102,0 0,-6.865 -12.972,0 c -5.341,0 -9.529,1.147 -12.199,3.046 -3.048,1.526 -4.191,4.588 -4.191,8.019 l 0,16.782 L 0,-6.855 0,0 z"
           inkscape:connector-curvature="0" />
      </g>
      <g
         transform="translate(288.356,585.4238)"
         id="g4156">
        <path
           id="path4158"
           style="fill:#000000;fill-opacity:1;fill-rule:nonzero;stroke:none"
           d="m 0,0 1.709,-6.442 c 0.342,-1.418 0.684,-2.76 0.92,-4.075 l 0.079,0 c 0.289,1.288 0.71,2.657 1.13,4.049 L 5.916,0 7.861,0 9.833,-6.362 c 0.474,-1.498 0.841,-2.867 1.13,-4.155 l 0.079,0 c 0.21,1.288 0.552,2.629 0.973,4.127 L 13.83,0 l 2.288,0 -4.103,-12.726 -2.103,0 -1.945,6.075 C 7.52,-5.206 7.152,-3.944 6.835,-2.445 l -0.052,0 C 6.467,-3.97 6.073,-5.312 5.627,-6.679 l -2.051,-6.047 -2.103,0 L -2.366,0 0,0 z"
           inkscape:connector-curvature="0" />
      </g>
      <g
         transform="translate(322.7461,580.3232)"
         id="g4160">
        <path
           id="path4162"
           style="fill:#000000;fill-opacity:1;fill-rule:nonzero;stroke:none"
           d="M 0,0 C 0.025,1.445 -0.605,3.76 -3.182,3.76 -5.549,3.76 -6.547,1.604 -6.732,0 L 0,0 z m -6.757,-1.656 c 0.052,-3.129 2.024,-4.418 4.338,-4.418 1.655,0 2.682,0.291 3.523,0.633 L 1.523,-7.072 C 0.71,-7.44 -0.711,-7.887 -2.735,-7.887 c -3.891,0 -6.257,2.602 -6.257,6.415 0,3.865 2.287,6.888 5.994,6.888 4.154,0 5.232,-3.655 5.232,-5.995 0,-0.474 -0.026,-0.841 -0.079,-1.105 l -8.912,0.028 z"
           inkscape:connector-curvature="0" />
      </g>
      <g
         transform="translate(355.8994,579.1924)"
         id="g4164">
        <path
           id="path4166"
           style="fill:#000000;fill-opacity:1;fill-rule:nonzero;stroke:none"
           d="m 0,0 c -2.525,0.052 -5.39,-0.395 -5.39,-2.865 0,-1.526 0.999,-2.208 2.156,-2.208 1.682,0 2.76,1.052 3.129,2.128 C -0.026,-2.707 0,-2.445 0,-2.209 L 0,0 z m 2.261,-3.444 c 0,-1.105 0.052,-2.183 0.184,-3.05 l -2.077,0 -0.212,1.603 -0.077,0 c -0.684,-0.998 -2.077,-1.892 -3.891,-1.892 -2.577,0 -3.893,1.814 -3.893,3.655 0,3.075 2.735,4.758 7.652,4.732 l 0,0.263 c 0,1.051 -0.289,2.97 -2.892,2.945 -1.209,0 -2.445,-0.342 -3.339,-0.947 l -0.527,1.551 c 1.054,0.657 2.605,1.105 4.208,1.105 3.918,0 4.864,-2.656 4.864,-5.207 l 0,-4.758 z"
           inkscape:connector-curvature="0" />
      </g>
      <g
         transform="translate(369.7793,581.4541)"
         id="g4168">
        <path
           id="path4170"
           style="fill:#000000;fill-opacity:1;fill-rule:nonzero;stroke:none"
           d="m 0,0 c 0,1.498 -0.024,2.787 -0.104,3.97 l 2.025,0 0.104,-2.498 0.079,0 c 0.58,1.71 1.998,2.787 3.55,2.787 0.236,0 0.42,-0.027 0.63,-0.079 l 0,-2.157 C 6.021,2.051 5.785,2.076 5.471,2.076 3.84,2.076 2.684,0.842 2.367,-0.868 2.315,-1.21 2.289,-1.578 2.289,-1.973 l 0,-6.783 -2.313,0 L 0,0 z"
           inkscape:connector-curvature="0" />
      </g>
      <g
         transform="translate(393.8379,580.3232)"
         id="g4172">
        <path
           id="path4174"
           style="fill:#000000;fill-opacity:1;fill-rule:nonzero;stroke:none"
           d="M 0,0 C 0.025,1.445 -0.605,3.76 -3.182,3.76 -5.549,3.76 -6.547,1.604 -6.731,0 L 0,0 z m -6.758,-1.656 c 0.053,-3.129 2.026,-4.418 4.338,-4.418 1.657,0 2.684,0.291 3.524,0.633 l 0.42,-1.631 c -0.815,-0.368 -2.235,-0.815 -4.258,-0.815 -3.891,0 -6.258,2.602 -6.258,6.415 0,3.865 2.287,6.888 5.994,6.888 4.154,0 5.231,-3.655 5.231,-5.995 0,-0.474 -0.024,-0.841 -0.077,-1.105 l -8.914,0.028 z"
           inkscape:connector-curvature="0" />
      </g>
      <g
         transform="translate(420.3135,581.4541)"
         id="g4176">
        <path
           id="path4178"
           style="fill:#000000;fill-opacity:1;fill-rule:nonzero;stroke:none"
           d="m 0,0 c 0,1.498 -0.025,2.787 -0.105,3.97 l 2.025,0 0.105,-2.498 0.078,0 c 0.579,1.71 1.998,2.787 3.549,2.787 0.237,0 0.421,-0.027 0.631,-0.079 l 0,-2.157 C 6.021,2.051 5.783,2.076 5.469,2.076 3.838,2.076 2.682,0.842 2.367,-0.868 2.313,-1.21 2.287,-1.578 2.287,-1.973 l 0,-6.783 -2.312,0 L 0,0 z"
           inkscape:connector-curvature="0" />
      </g>
      <g
         transform="translate(444.3701,580.3232)"
         id="g4180">
        <path
           id="path4182"
           style="fill:#000000;fill-opacity:1;fill-rule:nonzero;stroke:none"
           d="M 0,0 C 0.025,1.445 -0.605,3.76 -3.181,3.76 -5.548,3.76 -6.548,1.604 -6.731,0 L 0,0 z m -6.757,-1.656 c 0.053,-3.129 2.025,-4.418 4.338,-4.418 1.655,0 2.682,0.291 3.523,0.633 l 0.42,-1.631 C 0.71,-7.44 -0.711,-7.887 -2.735,-7.887 c -3.891,0 -6.258,2.602 -6.258,6.415 0,3.865 2.289,6.888 5.995,6.888 4.155,0 5.232,-3.655 5.232,-5.995 0,-0.474 -0.026,-0.841 -0.079,-1.105 l -8.912,0.028 z"
           inkscape:connector-curvature="0" />
      </g>
      <g
         transform="translate(464.0615,579.1924)"
         id="g4184">
        <path
           id="path4186"
           style="fill:#000000;fill-opacity:1;fill-rule:nonzero;stroke:none"
           d="m 0,0 c -2.523,0.052 -5.389,-0.395 -5.389,-2.865 0,-1.526 0.999,-2.208 2.156,-2.208 1.682,0 2.761,1.052 3.129,2.128 C -0.025,-2.707 0,-2.445 0,-2.209 L 0,0 z m 2.263,-3.444 c 0,-1.105 0.051,-2.183 0.182,-3.05 l -2.076,0 -0.211,1.603 -0.078,0 c -0.684,-0.998 -2.078,-1.892 -3.892,-1.892 -2.576,0 -3.891,1.814 -3.891,3.655 0,3.075 2.734,4.758 7.65,4.732 l 0,0.263 c 0,1.051 -0.289,2.97 -2.891,2.945 -1.209,0 -2.445,-0.342 -3.339,-0.947 l -0.526,1.551 c 1.052,0.657 2.603,1.105 4.206,1.105 3.918,0 4.866,-2.656 4.866,-5.207 l 0,-4.758 z"
           inkscape:connector-curvature="0" />
      </g>
      <g
         transform="translate(486.5947,580.2441)"
         id="g4188">
        <path
           id="path4190"
           style="fill:#000000;fill-opacity:1;fill-rule:nonzero;stroke:none"
           d="m 0,0 c 0,0.315 -0.027,0.684 -0.105,0.999 -0.342,1.447 -1.605,2.656 -3.339,2.656 -2.393,0 -3.814,-2.103 -3.814,-4.89 0,-2.604 1.289,-4.733 3.76,-4.733 1.553,0 2.972,1.052 3.393,2.76 0.078,0.315 0.105,0.632 0.105,1 L 0,0 z m 2.313,11.122 0,-15.381 c 0,-1.131 0.027,-2.42 0.105,-3.287 l -2.076,0 -0.107,2.209 -0.052,0 c -0.709,-1.42 -2.234,-2.498 -4.311,-2.498 -3.077,0 -5.47,2.603 -5.47,6.468 -0.024,4.261 2.631,6.836 5.707,6.836 1.971,0 3.287,-0.921 3.838,-1.919 l 0.053,0 0,7.572 2.313,0 z"
           inkscape:connector-curvature="0" />
      </g>
      <g
         transform="translate(501.4746,585.4238)"
         id="g4192">
        <path
           id="path4194"
           style="fill:#000000;fill-opacity:1;fill-rule:nonzero;stroke:none"
           d="m 0,0 2.762,-7.519 c 0.314,-0.841 0.631,-1.84 0.842,-2.603 l 0.052,0 c 0.237,0.763 0.498,1.734 0.815,2.656 L 6.994,0 9.439,0 5.969,-9.071 c -1.656,-4.364 -2.787,-6.599 -4.365,-7.992 -1.157,-0.973 -2.26,-1.368 -2.838,-1.473 l -0.579,1.945 c 0.579,0.159 1.34,0.528 2.025,1.131 0.63,0.5 1.392,1.395 1.945,2.577 0.105,0.237 0.183,0.395 0.183,0.552 0,0.132 -0.053,0.314 -0.183,0.579 L -2.523,0 0,0 z"
           inkscape:connector-curvature="0" />
      </g>
    </g>
  </g>
</svg>
